<?xml version="1.0" encoding="UTF-8"?>
<svg xmlns="http://www.w3.org/2000/svg" xmlns:xlink="http://www.w3.org/1999/xlink" viewBox="0 0 565.93 200">
  <defs>
    <style>
      .cls-1 {
        fill: #5aa886;
      }

      .cls-1, .cls-2 {
        stroke-width: 0px;
      }

      .cls-3 {
        fill: #748554;
        stroke: #748554;
      }

      .cls-3, .cls-4, .cls-5 {
        stroke-miterlimit: 10;
      }

      .cls-2, .cls-4, .cls-5 {
        fill: #4e6335;
      }

      .cls-4, .cls-5 {
        stroke: #5aa886;
      }

      .cls-5 {
        stroke-width: 2px;
      }
    </style>
  </defs>
  <g id="Capa_1" data-name="Capa 1">
    <path class="cls-4" d="M450.11,11.25c-.48,1.02,2.71,2.79,5,7.15,2.21,4.19,2.39,8.5,2.15,11.66,0,0,6.83,5.07,7.83,7.98,1,2.91,1,8.85,1,8.85,0,0-8.66-1.2-19.06-13.55-.12-.14-.23-.28-.35-.42,0,0-19.54,5.07-35.51-17.69,0,0,3.35,17.81-18.79,6.93,0,0-10.19,15.38-23.68,10.23-3.46-1.32-3.14-1.25-3.14-1.25,0,0,7.82,11.51-8.25,27.58-.1,4.19-.7,10.23-3.05,17.05-2.19,6.36-5.14,11.22-7.5,14.5,3.45,1.92,8.77,5.45,13.5,11.5,3.28,4.2,5.25,8.28,6.44,11.38,3.77,1.34,19.12,7.38,21.3,17.59,17.07-6.65,26.1,2.38,26.1,2.38,0,0,5.58-13.94,20-6.85,0,0,8-23,25-23,0,0,7-20,13-20,0,0,8-.41,0,15.8,0,0,4.11,9.55,3.56,16.88,0,0,1.44-4.67,10.44-4.67,0,0,0-12,1-13,0,0,7.31-18.28,9.66-17.14v-6.67s5.34-11.19,7.34-12.19,50-12,50-12l6.62,3s10.62-4.53,0-11.77l-56.12,14.27s-11.73-5-12.87-9.5-4.13-8.5-4.13-8.5l-12.88-11.07-5.62-11.38c-14.69-4.92-18.51-5.05-18.98-4.05Z"/>
    <image width="200" height="200" xlink:href="../../../../Downloads/Korok_Leaf_-_HWAoC_icon.webp"/>
  </g>
  <g id="Capa_4" data-name="Capa 4">
    <path class="cls-3" d="M425.75,107.25c.56,1.91,1.36,5.42,1,11-.09,1.41-.3,3.31-.71,5.51.12,0,.23,0,.35.02,1,.09,1.8.25,2.61.52.11.01.21.02.32.03,1.29.15,2.57.37,3.86.56.07,0,.13.03.19.04.18.02.37.04.55.07.02,0,.04,0,.05.01.13,0,.27.02.4.03.02-.03.05-.05.07-.08-.98-9.34-4.53-34.13-14.7-35.7-1.48-.23-2.97.05-5,1-15.31,7.15-20.9,33.46-22,39l7-1c1.08-4.66,3.94-13.7,12-21,1.11-1.01,3.3-3.97,7-5,2.47-.69,3.73-.13,4,0,.65.31,1.86,1.11,3,5Z"/>
    <path class="cls-3" d="M382.75,82.25c-1.7-17.86-16.42-26.32-20.78-28.44-.85,1.15-1.91,2.19-3.05,3.11l-1.17,2.34s27,13,14,54l5,4c2-8,8-14,6-35Z"/>
    <path class="cls-3" d="M375.75,34.25c0,6,27,33,39,25s-2-37-2-37l-4,4c14,50-25.6,5.19-25.6,5.19l-7.4,2.81Z"/>
    <path class="cls-3" d="M456.14,44.27s-.39,15.98-10.39,18.98-22-23-19-33l7,3s0,23,8,22,10-14,6-19l8.39,8.02Z"/>
    <path class="cls-3" d="M445.25,77.17c-10.23,3.49-3.46,27.34-1.85,32.56.19-.26.38-.52.6-.77,1.08-1.24,2.58-2.38,4.22-3.22-1.65-4.89-6.17-20.19.53-23.06,6.29-2.69,10.73,8.48,11.85,14.35.19-.29.38-.57.58-.84.68-.93,1.26-1.9,1.88-2.86.39-.84.8-1.66,1.27-2.46-3.87-12.91-7.98-17.48-19.08-13.69Z"/>
    <path class="cls-3" d="M472.75,23.25c1,9-8,12.86-8,12.86l-6.93-5.86,10.93-1.52v-11.48l4,6Z"/>
    <path class="cls-3" d="M491.75,52.28c-21-3-11-19-11-19l3,2s-8,14,8,13v4.47"/>
    <path class="cls-3" d="M491,87.89c.25-.44.53-.87.78-1.32.1-.18.19-.37.29-.54,0,0,0,0,.01-.02.22-.55.51-1.03.84-1.46-2.1-4.53-6.77-16.39,3.82-12.31l2-3s-8.72-6.68-11.86,2.16c-2.69,7.56,1.45,14.39,3.9,16.88.07-.13.14-.27.21-.4Z"/>
  </g>
  <g id="Vectorice">
    <g>
      <path class="cls-2" d="M410.25,12.75c9.71,19.28,19.73,39.15,29.46,58.47"/>
      <rect class="cls-1" x="423.98" y="9.25" width="2" height="65.47" transform="translate(26.56 195.71) rotate(-26.74)"/>
    </g>
    <line class="cls-5" x1="414.25" y1="136.75" x2="419.61" y2="75.89"/>
    <line class="cls-5" x1="363.25" y1="28.75" x2="409.33" y2="77.56"/>
    <line class="cls-5" x1="343.75" y1="91.25" x2="564.59" y2="45.15"/>
  </g>
</svg>